<svg width="48" height="48" viewBox="0 0 48 48" fill="none" xmlns="http://www.w3.org/2000/svg">
<path d="M24.4257 10C22.0935 10.0025 19.8022 10.6116 17.7769 11.7675C15.7516 12.9234 14.0621 14.5862 12.8746 16.5924C11.6871 18.5987 11.0423 20.8793 11.0038 23.2101C10.9652 25.5409 11.5342 27.8416 12.6548 29.886L11 36.8392L17.9564 35.1852C19.7506 36.169 21.746 36.7298 23.7903 36.8247C25.8345 36.9197 27.8734 36.5463 29.7511 35.7331C31.6289 34.9198 33.2958 33.6883 34.6245 32.1326C35.9532 30.5769 36.9085 28.7381 37.4174 26.7569C37.9263 24.7756 37.9754 22.7043 37.5609 20.7012C37.1463 18.6981 36.2791 16.8162 35.0256 15.1994C33.7721 13.5826 32.1653 12.2736 30.3282 11.3724C28.491 10.4713 26.4721 10.0018 24.4257 10ZM17.7128 16.0981H21.3721C21.5377 16.0981 21.6966 16.1639 21.8137 16.2809C21.9308 16.398 21.9966 16.5567 21.9966 16.7223C21.9761 17.5547 22.116 18.3832 22.4087 19.1628C22.5347 19.4237 22.5625 19.7214 22.4868 20.0011C22.4111 20.2808 22.237 20.5239 21.9966 20.6857L20.7164 21.9341C21.284 23.042 22.0262 24.0515 22.9145 24.9238C23.7802 25.8262 24.786 26.5829 25.8931 27.1646L27.142 25.8851C27.7665 25.2609 28.0537 25.2609 28.6657 25.4731C29.4456 25.7657 30.2745 25.9055 31.1073 25.8851C31.2704 25.8927 31.4249 25.9609 31.5404 26.0763C31.6559 26.1918 31.7241 26.3461 31.7317 26.5092V30.1668C31.7241 30.3299 31.6559 30.4843 31.5404 30.5998C31.4249 30.7152 31.2704 30.7834 31.1073 30.791C27.434 30.6311 23.9521 29.109 21.3409 26.5217C18.7484 23.9144 17.2249 20.4324 17.0697 16.7597C17.0711 16.5879 17.1388 16.4233 17.2586 16.3001C17.3784 16.1769 17.5411 16.1045 17.7128 16.0981Z" stroke="#272727" stroke-width="1.5" stroke-linecap="round" stroke-linejoin="round"/>
<path d="M47.25 24C47.25 36.8406 36.8406 47.25 24 47.25C11.1594 47.25 0.75 36.8406 0.75 24C0.75 11.1594 11.1594 0.75 24 0.75C36.8406 0.75 47.25 11.1594 47.25 24Z" stroke="#272727" stroke-width="1.5"/>
</svg>
