<svg width="49" height="49" viewBox="0 0 49 49" fill="none" xmlns="http://www.w3.org/2000/svg">
<path d="M34.697 13C35.5262 13 36.1518 13.7264 35.8172 15.0776L31.7583 34.1823C31.4746 35.5407 30.6527 35.8676 29.518 35.2356L19.8364 28.0949C19.7989 28.068 19.7683 28.0326 19.7472 27.9915C19.7261 27.9505 19.7151 27.905 19.7151 27.8588C19.7151 27.8127 19.7261 27.7672 19.7472 27.7262C19.7683 27.6851 19.7989 27.6497 19.8364 27.6228L31.0164 17.5401C31.5256 17.0897 30.9073 16.8718 30.2381 17.2786L16.2067 26.1191C16.1642 26.1468 16.1159 26.1645 16.0654 26.1708C16.015 26.1771 15.9638 26.1718 15.9158 26.1554L9.95844 24.274C8.63459 23.889 8.63459 22.981 10.2567 22.3345L34.0932 13.1525C34.2823 13.062 34.4876 13.0101 34.697 13Z" stroke="#272727" stroke-width="1.5" stroke-linecap="round" stroke-linejoin="round"/>
<circle cx="24.0625" cy="24.0625" r="23.3125" stroke="#272727" stroke-width="1.5"/>
</svg>
